<?xml version="1.0" encoding="utf-8"?>
<!-- Generator: Adobe Illustrator 16.0.0, SVG Export Plug-In . SVG Version: 6.00 Build 0)  -->
<!DOCTYPE svg PUBLIC "-//W3C//DTD SVG 1.1//EN" "http://www.w3.org/Graphics/SVG/1.1/DTD/svg11.dtd">
<svg version="1.1" id="Calque_1" xmlns="http://www.w3.org/2000/svg" xmlns:xlink="http://www.w3.org/1999/xlink" x="0px" y="0px"
	 width="841.89px" height="1190.55px" viewBox="0 0 841.89 1190.55" enable-background="new 0 0 841.89 1190.55"
	 xml:space="preserve">
<g>
	<path fill-rule="evenodd" clip-rule="evenodd" fill="#FFFFFF" d="M50.758,1175.043c0-386.445,0-772.891,0-1159.537
		c246.625,0,493.314,0,740.291,0c0,386.378,0,772.958,0,1159.537C544.465,1175.043,297.642,1175.043,50.758,1175.043z
		 M791.088,379.19c-2.847-22.907-4.381-46.072-8.832-68.664c-7.758-39.386-22.633-76.285-43.154-110.923
		c-28.527-48.151-66.032-87.996-112.339-119.003c-44.587-29.855-93.577-49.599-146.996-57.514
		c-49.586-7.346-98.684-5.694-147.565,6.053c-42.535,10.222-81.809,27.846-117.859,52.031
		c-36.195,24.282-67.267,54.424-92.789,89.992c-25.227,35.158-43.934,73.442-55.941,115.079
		c-12.063,41.834-16.153,84.536-11.882,127.621c5.37,54.172,23.788,105.195,43.437,155.405
		c18.125,46.316,38.008,92.058,59.479,136.921c30.167,63.032,61.689,125.453,94.183,187.319
		c27.907,53.132,57.694,105.289,87.216,157.559c20.821,36.864,42.453,73.275,64,109.724c8.432,14.263,29.05,14.571,37.601,0.586
		c12.685-20.751,25.131-41.659,37.176-62.786c25.871-45.381,51.938-90.661,76.968-136.506
		c29.187-53.462,58.349-106.981,85.678-161.402c27.445-54.65,53.885-109.888,78.377-165.912
		c18.457-42.222,34.289-85.701,49.178-129.34C780.89,464.78,791.912,423.169,791.088,379.19z"/>
	<path fill-rule="evenodd" clip-rule="evenodd" d="M791.088,379.19c0.824,43.979-10.198,85.59-24.066,126.238
		c-14.889,43.64-30.721,87.119-49.178,129.34c-24.492,56.024-50.932,111.262-78.377,165.912
		c-27.329,54.421-56.491,107.94-85.678,161.402c-25.029,45.845-51.097,91.125-76.968,136.506
		c-12.045,21.127-24.491,42.035-37.176,62.786c-8.551,13.985-29.169,13.677-37.601-0.586c-21.547-36.448-43.18-72.859-64-109.724
		c-29.521-52.27-59.309-104.427-87.216-157.559c-32.494-61.866-64.017-124.287-94.183-187.319
		c-21.471-44.863-41.353-90.605-59.479-136.921C77.518,519.057,59.1,468.034,53.73,413.861
		c-4.271-43.084-0.181-85.787,11.882-127.621c12.007-41.636,30.714-79.921,55.941-115.079
		c25.522-35.568,56.594-65.709,92.789-89.992c36.051-24.185,75.325-41.809,117.859-52.031
		c48.881-11.747,97.979-13.398,147.565-6.053c53.419,7.915,102.409,27.659,146.996,57.514
		c46.307,31.007,83.812,70.852,112.339,119.003c20.521,34.638,35.396,71.537,43.154,110.923
		C786.707,333.118,788.241,356.283,791.088,379.19z M420.821,674.825c157.525,1.52,284.402-128.269,287.616-280.027
		c3.47-163.743-128.957-294.212-286.283-294.59c-159.724-0.383-286.252,129.257-288.602,283.298
		C131.101,544.186,263.83,676.576,420.821,674.825z"/>
	<path fill-rule="evenodd" clip-rule="evenodd" fill="#FFFFFF" d="M420.821,674.825c-156.992,1.751-289.72-130.64-287.269-291.319
		c2.35-154.042,128.878-283.681,288.602-283.298c157.326,0.377,289.753,130.847,286.283,294.59
		C705.224,546.557,578.347,676.345,420.821,674.825z M373.464,277.765c-9.435-39.95-32.295-63.428-71.34-68.842
		c-30.747-4.264-63.261,12.534-77.481,40.67c-18.297,36.201-11.384,69.107,16.819,98.213c-1.099,0.977-1.874,1.831-2.799,2.465
		c-16.777,11.496-23.984,27.409-23.701,47.691c0.478,34.301,0.082,68.614,0.146,102.92c0.055,29.241,22.2,52.459,51.6,52.623
		c71.321,0.395,142.646,0.311,213.968,0.041c23.218-0.088,43.4-15.785,49.772-37.521c1.373-4.682,2.044-9.568,3.212-15.197
		c25.224,16.801,49.595,32.731,73.572,49.233c5.597,3.853,10.551,3.807,15.928,1.257c12.115-5.746,16.068-16.1,16.043-28.837
		c-0.098-49.956-0.022-99.913-0.084-149.87c-0.004-3.589-0.215-7.261-0.982-10.751c-3.814-17.373-20.041-24.005-34.613-14.275
		c-17.995,12.015-35.964,24.069-53.977,36.058c-5.127,3.413-10.365,6.657-16.441,10.547c-1.384-16.362-7.088-29.536-18.815-39.662
		c50.197-34.813,51.511-86.194,36.52-118.664c-17.971-38.926-58.882-60.294-101.92-52.254
		C413.226,190.273,375.802,219.866,373.464,277.765z"/>
	<path fill-rule="evenodd" clip-rule="evenodd" d="M373.464,277.765c2.337-57.899,39.761-87.492,75.424-94.155
		c43.038-8.041,83.949,13.328,101.92,52.254c14.991,32.47,13.678,83.852-36.52,118.664c11.728,10.126,17.432,23.3,18.815,39.662
		c6.076-3.891,11.314-7.135,16.441-10.547c18.013-11.988,35.981-24.042,53.977-36.058c14.572-9.73,30.799-3.098,34.613,14.275
		c0.768,3.49,0.979,7.162,0.982,10.751c0.062,49.957-0.014,99.914,0.084,149.87c0.025,12.737-3.928,23.091-16.043,28.837
		c-5.377,2.55-10.331,2.596-15.928-1.257c-23.978-16.502-48.349-32.432-73.572-49.233c-1.168,5.628-1.839,10.515-3.212,15.197
		c-6.372,21.736-26.555,37.434-49.772,37.521c-71.321,0.27-142.647,0.354-213.968-0.041c-29.4-0.163-51.545-23.381-51.6-52.623
		c-0.064-34.306,0.331-68.619-0.146-102.92c-0.283-20.283,6.924-36.196,23.701-47.691c0.925-0.634,1.7-1.488,2.799-2.465
		c-28.203-29.106-35.116-62.012-16.819-98.213c14.221-28.137,46.735-44.935,77.481-40.67
		C341.169,214.337,364.03,237.815,373.464,277.765z M533.17,274.53c-0.056-37.357-29.756-66.886-67.113-66.725
		c-36.331,0.157-66.742,30.759-66.496,66.914c0.25,36.739,30.99,67.194,67.604,66.976
		C503.618,341.479,533.225,311.351,533.17,274.53z M347.089,288.308c0.101-29.526-23.391-53.74-52.48-54.095
		c-29.146-0.356-54.041,24.347-54.142,53.723c-0.099,28.977,23.848,52.997,53.305,53.467
		C322.869,341.867,346.988,317.848,347.089,288.308z M374.206,289.493c-1.269,19.293-8.652,35.829-20.824,51.286
		c16.874,0,31.91,0,48.268,0C387.105,325.563,378.438,308.815,374.206,289.493z"/>
	<path fill-rule="evenodd" clip-rule="evenodd" fill="#FFFFFF" d="M533.17,274.53c0.055,36.821-29.552,66.949-66.005,67.166
		c-36.614,0.218-67.354-30.237-67.604-66.976c-0.246-36.155,30.165-66.757,66.496-66.914
		C503.414,207.644,533.114,237.172,533.17,274.53z"/>
	<path fill-rule="evenodd" clip-rule="evenodd" fill="#FFFFFF" d="M347.089,288.308c-0.102,29.541-24.221,53.559-53.317,53.095
		c-29.457-0.47-53.404-24.49-53.305-53.467c0.101-29.376,24.996-54.08,54.142-53.723
		C323.699,234.567,347.19,258.782,347.089,288.308z"/>
	<path fill-rule="evenodd" clip-rule="evenodd" fill="#FFFFFF" d="M374.206,289.493c4.232,19.322,12.899,36.069,27.443,51.286
		c-16.357,0-31.394,0-48.268,0C365.554,325.322,372.937,308.786,374.206,289.493z"/>
</g>
</svg>
